PathFileType	4	(X/Y/Z)	C:/Users/opensim2020/Desktop/walking_exp_matlab/subject03_walking13_straight_03.trc																																																																																																																																								
DataRate	CameraRate	NumFrames	NumMarkers	Units	OrigDataRate	OrigDataStartFrame	OrigNumFrames																																																																																																																																				
100	100	7	46	mm	100	1653	209																																																																																																																																				
Frame#	Time	LFHD			RFHD			LBHD			RBHD			C7			T10			CLAV			STRN			RBAK			LSHO			LUPA			LELB			LFRM			LWRA			LWRB			LFIN			RSHO			RUPA			RELB			RFRM			RWRA			RWRB			RFIN			LASI			RASI			LPSI			RPSI			LTHI			LKNE			LTIB			LANK			LHEE			LTOE			RTHI			RKNE			RTIB			RANK			RHEE			RTOE			*39			*40			*41			*42			*43			*44			*45		
		X1	Y1	Z1	X2	Y2	Z2	X3	Y3	Z3	X4	Y4	Z4	X5	Y5	Z5	X6	Y6	Z6	X7	Y7	Z7	X8	Y8	Z8	X9	Y9	Z9	X10	Y10	Z10	X11	Y11	Z11	X12	Y12	Z12	X13	Y13	Z13	X14	Y14	Z14	X15	Y15	Z15	X16	Y16	Z16	X17	Y17	Z17	X18	Y18	Z18	X19	Y19	Z19	X20	Y20	Z20	X21	Y21	Z21	X22	Y22	Z22	X23	Y23	Z23	X24	Y24	Z24	X25	Y25	Z25	X26	Y26	Z26	X27	Y27	Z27	X28	Y28	Z28	X29	Y29	Z29	X30	Y30	Z30	X31	Y31	Z31	X32	Y32	Z32	X33	Y33	Z33	X34	Y34	Z34	X35	Y35	Z35	X36	Y36	Z36	X37	Y37	Z37	X38	Y38	Z38	X39	Y39	Z39	X40	Y40	Z40	X41	Y41	Z41	X42	Y42	Z42	X43	Y43	Z43	X44	Y44	Z44	X45	Y45	Z45	X46	Y46	Z46
																																																																																																																																											
27	0.26	-928.37732	1625.30322	-1008.57776	-947.0166	1612.93799	-877.00177	-1046.6554	1563.72461	-1027.85522	-1061.09448	1551.85535	-897.89197	-1065.65906	1407.46057	-984.44873	-1108.8551	1100.50012	-990.76917	-940.4187	1333.8396	-982.57343	-899.70361	1166.90686	-994.12823	-1120.69373	1232.80383	-895.64398	-980.73834	1379.22864	-1139.18018	-991.47986	1182.92834	-1215.11304	-987.89374	1059.0946	-1226.91089	-967.401	930.05823	-1228.39282	-957.17084	809.38672	-1201.10474	-975.95697	818.15039	-1253.02783	-973.59918	732.31146	-1243.99707	-993.90558	1349.63904	-822.46613	-1004.82605	1127.69495	-750.94757	-996.37292	1014.75446	-738.91064	-982.78094	878.20361	-739.99353	-953.75494	783.4895	-778.01526	-985.60992	777.47992	-734.94995	-964.09308	706.36108	-746.64777	-964.93396	921.5072	-1103.26086	-954.14539	933.81659	-869.95612	-1123.4043	952.69928	-1050.20667	-1114.89624	971.99048	-902.80157	-998.6875	617.61108	-1151.38306	-973.42474	438.21198	-1132.53979	-1128.0304	319.75323	-1127.12756	-1285.70911	185.95029	-1085.31775	-1337.49158	192.03802	-1045.63696	-1216.15674	55.63372	-1062.84412	-985.16394	638.78528	-826.21912	-954.39905	465.79333	-876.4884	-1009.31714	277.71497	-869.34637	-1061.02991	67.71439	-918.55029	-1111.86987	36.31731	-966.75665	-924.21368	32.03701	-940.4408	-1026.24426	1666.47375	-963.40167	NaN	NaN	NaN	NaN	NaN	NaN	NaN	NaN	NaN	NaN	NaN	NaN	NaN	NaN	NaN	NaN	NaN	NaN
28	0.27	-917.57544	1626.41357	-1009.13397	-936.01001	1614.23889	-877.3988	-1035.95349	1565.01843	-1028.09949	-1050.0802	1553.24988	-898.06171	-1055.24231	1408.86365	-983.9093	-1099.15784	1102.0575	-989.39331	-930.14063	1335.03076	-983.10413	-889.85406	1167.98853	-994.70734	-1109.97754	1234.70044	-894.24316	-971.98639	1380.42188	-1139.32056	-985.43567	1184.44348	-1216.00757	-982.55298	1060.7561	-1228.55908	-963.32715	931.5191	-1230.72107	-954.91644	810.24738	-1204.22375	-973.21112	819.91687	-1256.24414	-972.55365	733.87494	-1247.91785	-982.185	1351.15955	-822.54626	-989.60553	1129.23096	-750.33429	-979.03949	1016.53772	-738.26605	-962.99921	880.30139	-739.50061	-932.92017	786.27136	-777.5755	-964.23041	779.6687	-733.86047	-940.61682	709.18451	-745.72375	-955.46344	923.95374	-1102.77087	-944.44604	934.44733	-869.62177	-1113.79089	954.71454	-1049.61902	-1104.78198	972.92993	-902.10626	-982.39716	620.46356	-1151.6073	-950.76233	442.84409	-1133.20581	-1102.54041	318.82404	-1126.63757	-1255.48743	180.05846	-1084.05969	-1308.15906	183.28827	-1044.39514	-1178.99268	54.18544	-1062.86694	-979.49603	639.06323	-827.15186	-952.11865	465.38559	-876.71973	-1008.32806	277.68216	-869.34863	-1061.08594	67.79041	-918.47223	-1111.93591	36.43731	-966.66919	-924.23334	31.98369	-940.52313	-1015.38312	1667.95227	-963.23413	NaN	NaN	NaN	NaN	NaN	NaN	NaN	NaN	NaN	NaN	NaN	NaN	NaN	NaN	NaN	NaN	NaN	NaN
29	0.28	-906.68207	1627.39294	-1009.65155	-924.77612	1615.29309	-877.96429	-1025.18579	1566.10547	-1028.34998	-1039.06714	1554.51501	-898.26782	-1044.80444	1410.08679	-983.39563	-1089.43347	1103.49048	-988.11145	-919.96246	1335.94189	-983.5592	-880.16223	1168.80298	-995.27545	-1099.30359	1236.35657	-892.7312	-963.12103	1381.4364	-1139.42285	-979.4502	1185.83398	-1216.94043	-977.48035	1062.26257	-1230.14685	-959.33386	932.86987	-1233.25537	-952.15088	811.27045	-1207.40491	-970.35083	821.67041	-1259.41309	-970.86066	735.41632	-1251.58826	-970.43964	1352.40247	-822.74359	-974.40094	1130.7124	-749.88177	-961.7865	1018.34033	-737.69159	-943.28668	882.45856	-738.78247	-912.22675	789.0697	-777.09113	-942.08954	781.80206	-732.96448	-917.15668	712.15302	-744.95984	-945.65057	926.40076	-1102.34534	-934.61249	934.91382	-869.21661	-1104.27917	956.54004	-1049.09375	-1094.75854	973.70447	-901.41309	-966.48425	623.37378	-1151.81628	-930.44385	446.10794	-1132.54456	-1076.74634	317.38971	-1126.18103	-1224.94092	172.94954	-1083.33044	-1277.58215	173.25377	-1043.06299	-1141.02429	52.10025	-1062.64429	-973.08026	638.948	-827.66089	-949.80676	464.89639	-876.82385	-1007.41046	277.64035	-869.30121	-1061.08093	67.88882	-918.46411	-1111.98401	36.55545	-966.61755	-924.27948	31.95248	-940.53912	-1004.19159	1668.50171	-964.24091	NaN	NaN	NaN	NaN	NaN	NaN	NaN	NaN	NaN	NaN	NaN	NaN	NaN	NaN	NaN	NaN	NaN	NaN
30	0.29	-895.72949	1628.09204	-1010.28693	-913.54407	1616.16809	-878.50189	-1014.38916	1567.04224	-1028.62549	-1027.95374	1555.58411	-898.4873	-1034.29004	1411.09082	-982.93951	-1079.65332	1104.62122	-986.94672	-909.66748	1336.57971	-983.99762	-870.36707	1169.48975	-995.74628	-1088.3772	1237.70288	-891.34351	-954.20166	1382.29919	-1139.46667	-973.3526	1187.12793	-1217.88062	-972.55713	1063.68604	-1231.84314	-955.35034	934.22009	-1235.75757	-949.21332	812.32898	-1210.47693	-967.59003	823.15326	-1262.39868	-968.71124	736.91272	-1255.17407	-958.63971	1353.51587	-822.9646	-959.19128	1132.11511	-749.80981	-944.70209	1020.10089	-737.11902	-923.55963	884.72101	-738.21069	-891.2887	791.85834	-776.82281	-920.20514	784.10852	-732.15961	-893.79279	715.10498	-744.26392	-935.88605	928.54834	-1101.88208	-925.02393	935.17664	-868.99408	-1094.66309	958.14618	-1048.64734	-1084.7594	974.30212	-900.81439	-950.89331	626.32788	-1152.06702	-908.69501	450.97849	-1132.81921	-1050.71082	315.52969	-1126.07446	-1193.10461	165.08447	-1082.51245	-1245.80957	162.18834	-1042.23645	-1101.57385	50.15715	-1063.07642	-967.3913	639.1554	-827.60071	-947.48816	464.38074	-876.815	-1006.61737	277.62628	-869.1803	-1061.41931	68.15441	-918.5766	-1112.03198	36.71025	-966.60004	-924.30914	31.88384	-940.49457	-993.19403	1669.99268	-964.55377	NaN	NaN	NaN	NaN	NaN	NaN	NaN	NaN	NaN	NaN	NaN	NaN	NaN	NaN	NaN	NaN	NaN	NaN
31	0.3	-884.68353	1628.54358	-1010.90314	-902.27448	1616.77112	-879.09796	-1003.55499	1567.76465	-1028.92664	-1016.82031	1556.45996	-898.76031	-1023.72321	1411.86841	-982.5144	-1069.77185	1105.53918	-985.82074	-899.40442	1337.05042	-984.46039	-860.54248	1169.83398	-996.20416	-1077.38062	1238.75183	-889.97211	-945.12183	1382.89331	-1139.55225	-967.19299	1188.32104	-1218.80566	-967.60913	1064.97546	-1233.74133	-951.43658	935.39465	-1238.32825	-945.88721	813.43335	-1213.68628	-964.63885	824.58746	-1265.39746	-966.1427	738.31635	-1258.60425	-946.91626	1354.50806	-823.24915	-944.28888	1133.39331	-749.30591	-927.66803	1021.77826	-736.59454	-903.98547	886.85632	-737.56104	-870.48859	794.60303	-776.72949	-898.37939	786.48798	-731.39099	-870.56317	718.06818	-743.79669	-926.08923	930.40326	-1101.46606	-914.89807	935.41998	-868.43005	-1084.9259	959.51215	-1048.40063	-1074.71948	974.72345	-900.38654	-935.5882	629.1604	-1152.20422	-889.29889	454.20499	-1131.92664	-1024.76514	313.36465	-1125.69849	-1159.91626	156.61571	-1081.78259	-1212.91724	150.44524	-1041.56689	-1061.76099	47.87588	-1063.26904	-960.33643	638.71649	-828.50916	-945.22583	463.81448	-876.59064	-1005.88086	277.60117	-869.02722	-1061.44849	68.22253	-918.54388	-1112.04578	36.86282	-966.58478	-924.362	31.84745	-940.41858	-981.87903	1670.84399	-964.55267	NaN	NaN	NaN	NaN	NaN	NaN	NaN	NaN	NaN	NaN	NaN	NaN	NaN	NaN	NaN	NaN	NaN	NaN
32	0.31	-873.58704	1628.71008	-1011.61993	-890.9082	1617.0708	-879.70459	-992.66528	1568.18665	-1029.2688	-1005.70032	1557.047	-899.04688	-1013.11328	1412.43286	-982.15118	-1059.85144	1106.32446	-984.80933	-889.13953	1337.1958	-984.93005	-850.81049	1169.92273	-996.38287	-1066.38379	1239.53625	-888.61298	-935.85352	1383.10693	-1139.67676	-960.9259	1189.23877	-1219.72412	-962.78809	1066.05884	-1235.51355	-947.40253	936.34973	-1240.98157	-941.9447	814.73395	-1217.18506	-961.69373	825.82782	-1268.24023	-963.13934	739.5105	-1261.93469	-935.15759	1355.073	-823.54962	-929.53149	1134.52979	-748.75995	-910.94391	1023.30194	-735.93347	-884.39594	888.96185	-737.08807	-849.75171	797.37512	-776.72083	-876.61011	788.77588	-730.7796	-847.47876	720.979	-743.31677	-916.34003	931.86414	-1100.93311	-905.03461	935.31989	-868.1413	-1075.01563	960.45746	-1048.30188	-1064.77576	974.98376	-900.04803	-920.63538	631.56189	-1152.61914	-868.50446	459.18646	-1132.11523	-998.67029	310.93307	-1125.28491	-1125.86475	147.60013	-1081.20288	-1178.66821	138.12665	-1041.19055	-1021.30737	45.44535	-1063.52295	-954.5213	638.58917	-828.35156	-942.82971	463.21054	-876.38495	-1005.02838	277.5686	-868.94574	-1061.28162	68.27345	-918.39679	-1112.05591	37.32139	-966.17444	-924.37115	31.78885	-940.28821	-970.50854	1671.18408	-965.59961	NaN	NaN	NaN	NaN	NaN	NaN	NaN	NaN	NaN	NaN	NaN	NaN	NaN	NaN	NaN	NaN	NaN	NaN
33	0.32	-862.50031	1628.57825	-1012.23004	-879.55585	1617.05884	-880.362	-981.71942	1568.39172	-1029.66333	-994.51923	1557.35974	-899.39984	-1002.4386	1412.72461	-981.86823	-1049.80811	1106.68347	-983.77399	-878.65332	1337.12524	-985.39899	-840.78687	1169.73242	-996.8634	-1055.349	1240.08459	-887.32501	-926.62128	1383.15967	-1139.77466	-954.51044	1189.86694	-1220.62939	-957.90436	1066.87671	-1237.30493	-943.46082	937.10907	-1243.32056	-938.02612	815.58527	-1220.3999	-958.62933	826.76721	-1270.99866	-959.85358	740.51636	-1265.1073	-923.50391	1355.52344	-823.8941	-914.57239	1135.32483	-748.29663	-894.33643	1024.61438	-735.21686	-865.052	890.87402	-736.58185	-829.17023	799.94739	-776.67139	-854.92419	790.98431	-730.22211	-824.37952	723.76276	-743.0274	-906.40881	933.021	-1100.65332	-895.03625	935.06946	-868.02277	-1065.06616	960.90131	-1048.23071	-1054.77234	975.02252	-899.81366	-905.59235	634.06213	-1152.99438	-849.4386	462.98322	-1131.59363	-972.63824	308.34598	-1124.91699	-1091.20654	138.36102	-1081.17749	-1143.37219	125.55421	-1041.05896	-980.2655	43.17684	-1063.97632	-948.47833	638.24457	-828.64441	-940.39154	462.60742	-876.15491	-1004.16223	277.52417	-869.02667	-1061.28003	68.38873	-918.36493	-1112.18091	37.71043	-966.22968	-924.32532	31.74778	-940.24115	-959.03687	1671.00452	-966.20068	NaN	NaN	NaN	NaN	NaN	NaN	NaN	NaN	NaN	NaN	NaN	NaN	NaN	NaN	NaN	NaN	NaN	NaN
